<svg xmlns="http://www.w3.org/2000/svg" xmlns:xlink="http://www.w3.org/1999/xlink" width="870.355" height="679.232" viewBox="0 0 870.355 679.232"><defs><style>.a,.bq{fill:#0092ff;}.a{opacity:0.1;}.b{fill:#6b99d1;opacity:0.15;}.b,.bw{mix-blend-mode:multiply;}.b,.bw,.by,.bz,.cb,.cc{isolation:isolate;}.c{fill:#dceeff;}.d{fill:#a5cbfa;}.e{fill:#c8e2ff;}.f{fill:#fff;}.g{fill:#344593;}.h{fill:#1e3779;}.i{fill:#031f60;}.j{fill:url(#a);}.k{fill:url(#b);}.l{fill:url(#c);}.m{fill:url(#d);}.n{fill:url(#e);}.o{fill:url(#f);}.p{fill:url(#g);}.q{fill:url(#h);}.r{fill:url(#i);}.s{fill:url(#j);}.t{fill:url(#k);}.u{fill:url(#l);}.v{fill:url(#m);}.w{fill:url(#n);}.x{fill:url(#o);}.y{fill:url(#p);}.z{fill:url(#q);}.aa{fill:url(#r);}.ab{fill:url(#s);}.ac{fill:url(#t);}.ad{fill:url(#u);}.ae{fill:url(#v);}.af{fill:url(#w);}.ag{fill:url(#x);}.ah{fill:url(#y);}.ai{fill:url(#z);}.aj{fill:url(#aa);}.ak{fill:url(#ab);}.al{fill:url(#ac);}.am{fill:url(#ad);}.an{fill:url(#ae);}.ao{fill:url(#af);}.ap{fill:url(#ag);}.aq{fill:url(#ah);}.ar{fill:url(#ai);}.as{fill:url(#aj);}.at{fill:url(#ak);}.au{fill:url(#al);}.av{fill:url(#am);}.aw{fill:url(#an);}.ax{fill:url(#ao);}.ay{fill:url(#ap);}.az{fill:url(#aq);}.ba{fill:url(#ar);}.bb{fill:url(#as);}.bc{fill:url(#at);}.bd{fill:url(#au);}.be{fill:url(#av);}.bf{fill:url(#aw);}.bg{fill:url(#ax);}.bh{fill:url(#ay);}.bi{fill:url(#az);}.bj{fill:url(#ba);}.bk{fill:url(#bb);}.bl{fill:url(#bc);}.bm{fill:url(#bd);}.bn{fill:url(#be);}.bo{fill:url(#bf);}.bp{fill:url(#bg);}.bq{opacity:0.25;}.br{fill:url(#bh);}.bs{fill:url(#bi);}.bt{fill:url(#bj);}.bu{fill:url(#bk);}.bv,.bw{fill:url(#bl);}.bw,.cc{opacity:0.5;}.bx{fill:url(#bn);}.by{mix-blend-mode:color-dodge;fill:url(#bo);}.bz{opacity:0.4;}.bz,.cb,.cc{mix-blend-mode:color;}.ca,.cb,.cc,.cd{fill:#09f;}.cd{opacity:0.81;}.ce{fill:#ededed;}.cf{fill:#e2e2e2;}.cg{fill:#fee60b;}.ch{fill:#ef563c;}.ci{fill:#74c54e;}.cj{fill:#74c44e;}.ck{fill:#141414;}.cl{fill:#efb94b;}.cm{fill:#d6b251;}.cn{fill:#ffd25a;}.co{fill:#efefef;}.cp{fill:#48b19a;}.cq{fill:#dad7dc;}.cr{fill:#e6e7e8;}.cs{fill:#6fad47;}.ct{fill:#5fa33b;}.cu{fill:none;stroke:#fff;stroke-linecap:round;stroke-linejoin:round;stroke-width:2.76px;}</style><linearGradient id="a" x1="-35.741" y1="0.751" x2="-34.95" y2="1.797" gradientUnits="objectBoundingBox"><stop offset="0.04" stop-color="#f7a68b"/><stop offset="0.31" stop-color="#f8b591"/><stop offset="0.85" stop-color="#fadea1"/><stop offset="1" stop-color="#fbeaa6"/></linearGradient><linearGradient id="b" x1="-37.94" y1="0.35" x2="-37.94" y2="1.377" xlink:href="#a"/><linearGradient id="c" x1="-17.726" y1="-0.969" x2="-18.346" y2="0.864" gradientUnits="objectBoundingBox"><stop offset="0.74" stop-color="#472d83"/><stop offset="1" stop-color="#39499e"/></linearGradient><linearGradient id="d" x1="-73.928" y1="0.5" x2="-72.944" y2="0.5" gradientUnits="objectBoundingBox"><stop offset="0.01" stop-color="#c0a0cb"/><stop offset="0.05" stop-color="#c7aad1"/><stop offset="0.11" stop-color="#d9c5df"/><stop offset="0.2" stop-color="#f6f1f7"/><stop offset="0.22" stop-color="#fff"/><stop offset="0.25" stop-color="#f9f5fa"/><stop offset="0.3" stop-color="#e8dbec"/><stop offset="0.36" stop-color="#ceb2d5"/><stop offset="0.42" stop-color="#b195c5"/><stop offset="0.49" stop-color="#997db8"/><stop offset="0.56" stop-color="#8a6eb0"/><stop offset="0.61" stop-color="#8569ad"/><stop offset="0.75" stop-color="#9071b1"/><stop offset="1" stop-color="#ad85bc"/></linearGradient><linearGradient id="e" x1="-72.55" y1="-1.334" x2="-73.49" y2="0.607" gradientUnits="objectBoundingBox"><stop offset="0" stop-color="#9d79b5"/><stop offset="0.14" stop-color="#a380b9"/><stop offset="0.34" stop-color="#b292c3"/><stop offset="0.57" stop-color="#ccb0d4"/><stop offset="0.58" stop-color="#ceb2d5"/><stop offset="0.76" stop-color="#d8c2de"/><stop offset="1" stop-color="#e9dcec"/></linearGradient><linearGradient id="f" x1="-95.052" y1="0.5" x2="-94.068" y2="0.5" xlink:href="#d"/><linearGradient id="g" x1="-93.647" y1="-1.335" x2="-94.586" y2="0.607" xlink:href="#e"/><linearGradient id="h" x1="-125.705" y1="0.5" x2="-124.721" y2="0.5" xlink:href="#d"/><linearGradient id="i" x1="-124.338" y1="-1.335" x2="-125.278" y2="0.607" gradientUnits="objectBoundingBox"><stop offset="0.04" stop-color="#fbb978"/><stop offset="0.4" stop-color="#fbc886"/><stop offset="1" stop-color="#fbeaa6"/></linearGradient><linearGradient id="j" x1="-95.052" y1="0.498" x2="-94.068" y2="0.498" xlink:href="#d"/><linearGradient id="k" x1="-93.647" y1="-1.335" x2="-94.586" y2="0.608" xlink:href="#e"/><linearGradient id="l" x1="-75.9" y1="0.5" x2="-74.916" y2="0.5" xlink:href="#d"/><linearGradient id="m" x1="-74.517" y1="-1.334" x2="-75.457" y2="0.607" xlink:href="#e"/><linearGradient id="n" x1="-97.581" y1="0.5" x2="-96.597" y2="0.5" xlink:href="#d"/><linearGradient id="o" x1="-96.175" y1="-1.335" x2="-97.114" y2="0.607" xlink:href="#e"/><linearGradient id="p" x1="-129.107" y1="0.5" x2="-128.122" y2="0.5" xlink:href="#d"/><linearGradient id="q" x1="-127.724" y1="-1.333" x2="-128.663" y2="0.608" xlink:href="#i"/><linearGradient id="r" x1="-97.581" y1="0.5" x2="-96.597" y2="0.5" xlink:href="#d"/><linearGradient id="s" x1="-96.175" y1="-1.335" x2="-97.114" y2="0.608" xlink:href="#e"/><linearGradient id="t" x1="-77.851" y1="0.5" x2="-76.867" y2="0.5" xlink:href="#d"/><linearGradient id="u" x1="-76.469" y1="-1.335" x2="-77.408" y2="0.608" xlink:href="#e"/><linearGradient id="v" x1="-100.085" y1="0.5" x2="-99.101" y2="0.5" xlink:href="#d"/><linearGradient id="w" x1="-98.702" y1="-1.334" x2="-99.642" y2="0.608" xlink:href="#e"/><linearGradient id="x" x1="-132.452" y1="0.5" x2="-131.468" y2="0.5" xlink:href="#d"/><linearGradient id="y" x1="-131.069" y1="-1.335" x2="-132.009" y2="0.608" xlink:href="#i"/><linearGradient id="z" x1="-100.085" y1="0.5" x2="-99.101" y2="0.5" xlink:href="#d"/><linearGradient id="aa" x1="-98.702" y1="-1.335" x2="-99.642" y2="0.608" xlink:href="#e"/><linearGradient id="ab" x1="-79.827" y1="0.5" x2="-78.843" y2="0.5" xlink:href="#d"/><linearGradient id="ac" x1="-78.45" y1="-1.335" x2="-79.39" y2="0.608" xlink:href="#e"/><linearGradient id="ad" x1="-102.638" y1="0.5" x2="-101.654" y2="0.5" xlink:href="#d"/><linearGradient id="ae" x1="-101.255" y1="-1.334" x2="-102.195" y2="0.608" xlink:href="#e"/><linearGradient id="af" x1="-135.781" y1="0.5" x2="-134.797" y2="0.5" xlink:href="#d"/><linearGradient id="ag" x1="-134.414" y1="-1.335" x2="-135.354" y2="0.608" xlink:href="#i"/><linearGradient id="ah" x1="-102.638" y1="0.5" x2="-101.654" y2="0.5" xlink:href="#d"/><linearGradient id="ai" x1="-101.255" y1="-1.336" x2="-102.195" y2="0.607" xlink:href="#e"/><linearGradient id="aj" x1="-85.454" y1="0.5" x2="-84.47" y2="0.5" xlink:href="#d"/><linearGradient id="ak" x1="-84.071" y1="-1.334" x2="-85.011" y2="0.607" xlink:href="#e"/><linearGradient id="al" x1="-109.856" y1="0.5" x2="-108.872" y2="0.5" xlink:href="#d"/><linearGradient id="am" x1="-108.455" y1="-1.335" x2="-109.395" y2="0.607" xlink:href="#e"/><linearGradient id="an" x1="-145.311" y1="0.5" x2="-144.327" y2="0.5" xlink:href="#d"/><linearGradient id="ao" x1="-143.929" y1="-1.335" x2="-144.868" y2="0.607" xlink:href="#i"/><linearGradient id="ap" x1="-109.854" y1="0.498" x2="-108.87" y2="0.498" xlink:href="#d"/><linearGradient id="aq" x1="-108.455" y1="-1.335" x2="-109.395" y2="0.608" xlink:href="#e"/><linearGradient id="ar" x1="-84.028" y1="0.5" x2="-83.044" y2="0.5" xlink:href="#d"/><linearGradient id="as" x1="-82.652" y1="-1.334" x2="-83.591" y2="0.607" xlink:href="#e"/><linearGradient id="at" x1="-108.06" y1="0.5" x2="-107.076" y2="0.5" xlink:href="#d"/><linearGradient id="au" x1="-106.651" y1="-1.335" x2="-107.591" y2="0.607" xlink:href="#e"/><linearGradient id="av" x1="-142.971" y1="0.5" x2="-141.987" y2="0.5" xlink:href="#d"/><linearGradient id="aw" x1="-141.588" y1="-1.333" x2="-142.528" y2="0.608" xlink:href="#i"/><linearGradient id="ax" x1="-108.06" y1="0.5" x2="-107.076" y2="0.5" xlink:href="#d"/><linearGradient id="ay" x1="-106.651" y1="-1.335" x2="-107.591" y2="0.608" xlink:href="#e"/><linearGradient id="az" x1="-82.631" y1="0.5" x2="-81.647" y2="0.5" xlink:href="#d"/><linearGradient id="ba" x1="-81.248" y1="-1.335" x2="-82.188" y2="0.608" xlink:href="#e"/><linearGradient id="bb" x1="-106.23" y1="0.5" x2="-105.246" y2="0.5" xlink:href="#d"/><linearGradient id="bc" x1="-104.847" y1="-1.334" x2="-105.787" y2="0.608" xlink:href="#e"/><linearGradient id="bd" x1="-140.583" y1="0.5" x2="-139.599" y2="0.5" xlink:href="#d"/><linearGradient id="be" x1="-139.2" y1="-1.335" x2="-140.14" y2="0.608" xlink:href="#i"/><linearGradient id="bf" x1="-106.23" y1="0.5" x2="-105.246" y2="0.5" xlink:href="#d"/><linearGradient id="bg" x1="-104.847" y1="-1.335" x2="-105.787" y2="0.608" xlink:href="#e"/><linearGradient id="bh" x1="-21.691" y1="0.243" x2="-20.239" y2="0.63" xlink:href="#e"/><linearGradient id="bi" x1="-39.137" y1="0.555" x2="-37.618" y2="0.056" xlink:href="#e"/><linearGradient id="bj" x1="-17.481" y1="0.238" x2="-17.336" y2="0.738" xlink:href="#e"/><linearGradient id="bk" x1="-23.604" y1="0.243" x2="-22.152" y2="0.63" xlink:href="#e"/><linearGradient id="bl" x1="-32.955" y1="0.28" x2="-31.161" y2="0.757" xlink:href="#e"/><linearGradient id="bn" x1="-42.744" y1="0.555" x2="-41.226" y2="0.056" xlink:href="#e"/><radialGradient id="bo" cx="0.363" cy="0.5" r="0.425" gradientTransform="matrix(-1.583, 0, 0, 0.974, -141.559, -0.03)" gradientUnits="objectBoundingBox"><stop offset="0" stop-color="#fff"/><stop offset="1"/></radialGradient></defs><path class="a" d="M625.94,85.492C661.317,71.111,698.7,59.071,736.87,60.6c56.155,2.208,109.94,35.958,136.362,85.518,22.386,41.983,25.146,91.2,34.788,137.79,11.878,57.411,34.626,111.968,58.935,165.325,13.058,28.62,26.831,57.935,28.972,89.353,2.979,43.611-17.874,87.079-50.568,116.118s-76.143,44.315-119.706,47.656c-23.195,1.78-47.427.133-68.033-10.66-21.8-11.421-37.681-32.066-59.563-43.316-20.283-10.47-44-11.9-66.768-10.536a299,299,0,0,0-87.174,18.522c-31.818,11.954-61.409,29.258-93.161,41.374s-67.224,18.883-99.68,8.766c-30.457-9.518-54.575-32.551-76.3-55.917A978.6,978.6,0,0,1,177.7,527.529c-19.6-29.353-37.834-60.324-46.5-94.541-16.561-65.406,6.234-139.208,56.812-183.884,41.878-37.005,98.119-53.071,153.161-62.818,50.188-8.89,108.218-9.442,154.417-32.608C539.651,131.549,579.74,104.281,625.94,85.492Z" transform="translate(-125.853 -60.471)"/><g transform="translate(-10908.792 -588.147)"><path class="b" d="M802.51,459.521,503.926,649.228a28.374,28.374,0,0,1-27.889,0L177.574,459.545c-3.856-2.425-5.784-5.6-5.784-8.84a9.41,9.41,0,0,1,3.056-6.657,13.713,13.713,0,0,1,2.728-2.183l298.584-189.6c7.651-4.85,20.129-4.85,27.889,0L802.51,441.878C810.174,446.728,810.174,454.695,802.51,459.521Z" transform="translate(10880 614.488)"/><path class="c" d="M802.51,442.988,503.926,632.562a26.036,26.036,0,0,1-13.92,3.638,26.338,26.338,0,0,1-13.86-3.638L177.574,442.988c-3.856-2.425-5.784-5.663-5.784-8.84s1.928-6.427,5.784-8.852L218.05,399.6,476.158,235.638c7.651-4.85,20.129-4.85,27.889,0L802.51,425.284C810.174,430.122,810.174,438.138,802.51,442.988Z" transform="translate(10880 610.953)"/><path class="d" d="M490.006,547.764v63.89a26.339,26.339,0,0,1-13.86-3.638l-298.572-189.6c-3.856-2.425-5.784-5.663-5.784-8.84V354.237a9.409,9.409,0,0,1,3.056-6.657l43.2,27.465Z" transform="translate(10880 635.522)"/><path class="e" d="M434.22,547.768v63.89a26.385,26.385,0,0,0,13.872-3.638l298.633-189.6c3.856-2.486,5.784-5.663,5.784-8.84V354.217a9.422,9.422,0,0,0-3.044-6.657l-43.2,27.465Z" transform="translate(10935.786 635.518)"/><path class="c" d="M802.51,397.311,503.926,586.969a28.374,28.374,0,0,1-27.889,0L177.574,397.335c-3.856-2.425-5.784-5.59-5.784-8.84a9.41,9.41,0,0,1,3.056-6.657,13.714,13.714,0,0,1,2.728-2.183l298.584-189.6c7.651-4.85,20.129-4.85,27.889,0L802.51,379.632C810.174,384.518,810.174,392.485,802.51,397.311Z" transform="translate(10880 601.263)"/><path class="f" d="M490.054,187.613a25.088,25.088,0,0,1,13.338,3.48L801.867,380.655c3.347,2.146,5.19,4.935,5.178,7.857s-1.843,5.675-5.178,7.785l-298.6,189.659a27.15,27.15,0,0,1-26.531,0L178.217,396.322c-3.359-2.11-5.214-4.85-5.214-7.821a8.294,8.294,0,0,1,2.7-5.808,13.547,13.547,0,0,1,2.51-2.013l298.6-189.586a24.846,24.846,0,0,1,13.241-3.48m0-1.213a26.337,26.337,0,0,0-13.9,3.638L177.574,379.661a13.713,13.713,0,0,0-2.728,2.183,9.41,9.41,0,0,0-3.056,6.657c0,3.25,1.928,6.427,5.784,8.84L476.085,586.975a28.374,28.374,0,0,0,27.889,0L802.51,397.316c7.663-4.85,7.663-12.793,0-17.679L504,190.063a26.531,26.531,0,0,0-13.945-3.638Z" transform="translate(10880 601.258)"/><path class="g" d="M469.827,221.6,227.2,375.668c-5.117,3.262-5.117,8.488,0,11.786l242.515,154a18.843,18.843,0,0,0,18.54,0L730.991,387.43c5.117-3.25,5.117-8.488,0-11.786l-242.515-154a18.868,18.868,0,0,0-18.649-.048Z" transform="translate(10890.964 608.223)"/><path class="h" d="M686.141,375.633l-242.515-154a17.631,17.631,0,0,0-9.276-2.425v10.38L684.577,388.437l1.6-1.019C691.2,384.169,691.2,378.894,686.141,375.633Z" transform="translate(10935.813 608.233)"/><path class="i" d="M479.1,219.161a17.6,17.6,0,0,0-9.276,2.425L227.2,375.667c-5.117,3.262-5.117,8.488,0,11.786l1.6,1.019L479.1,229.54Z" transform="translate(10890.964 608.223)"/><path class="j" d="M458.883,316.546V459.1L323.39,371.512V228.95Z" transform="translate(10912.227 610.304)"/><path class="k" d="M435.07,316.414v142.55l135.457-86.942V229.57Z" transform="translate(10935.966 610.436)"/><path class="l" d="M594.267,244.943,458.81,331.788l-135.42-87.6,135.6-86.941Z" transform="translate(10912.227 595.063)"/><path class="m" d="M254.451,358.52h63.527v3.965h0v.243c0,9.931-14.224,17.97-31.769,17.97s-31.757-8.039-31.757-17.97a1.62,1.62,0,0,1,0-.242h0Z" transform="translate(10897.57 637.847)"/><path class="n" d="M254.45,361.332c0,8.549,14.223,15.472,31.757,15.472s31.769-6.924,31.769-15.472-14.224-15.472-31.769-15.472S254.45,352.784,254.45,361.332Z" transform="translate(10897.571 635.156)"/><path class="o" d="M260.274,352.11h49.388v4.947h0v.194c0,7.724-11.059,13.981-24.712,13.981s-24.7-6.257-24.7-13.981v-.194h0Z" transform="translate(10898.805 636.485)"/><ellipse class="p" cx="24.712" cy="12.029" rx="24.712" ry="12.029" transform="translate(11159.066 976.663)"/><path class="q" d="M265.241,242.66H302.6V373.618h0v.146c0,5.832-8.367,10.561-18.686,10.561s-18.674-4.729-18.674-10.561a.594.594,0,0,1,0-.146h0Z" transform="translate(10899.864 613.219)"/><path class="r" d="M265.24,244.314c0,5.02,8.367,9.094,18.674,9.094s18.686-4.074,18.686-9.094-8.367-9.094-18.686-9.094S265.24,239.282,265.24,244.314Z" transform="translate(10899.865 611.637)"/><path class="s" d="M260.274,240.86h49.388v5.02h0v.194c0,7.712-11.059,13.981-24.712,13.981s-24.7-6.269-24.7-13.981v-.194h0Z" transform="translate(10898.805 612.836)"/><ellipse class="t" cx="24.712" cy="12.029" rx="24.712" ry="12.029" transform="translate(11159.066 841.764)"/><path class="u" d="M306,387.51h63.527v3.965h0v.243c0,9.931-14.224,17.97-31.769,17.97S306,401.649,306,391.742V391.5h0Z" transform="translate(10908.529 644.01)"/><path class="v" d="M306,390.322c0,8.488,14.211,15.472,31.757,15.472s31.769-6.936,31.769-15.472S355.3,374.85,337.757,374.85,306,381.774,306,390.322Z" transform="translate(10908.529 641.319)"/><path class="w" d="M311.79,381.1H361.2v4.947h0v.194c0,7.724-11.071,13.981-24.712,13.981s-24.7-6.257-24.7-13.981v-.194h0Z" transform="translate(10909.76 642.647)"/><ellipse class="x" cx="24.712" cy="12.029" rx="24.712" ry="12.029" transform="translate(11221.539 1011.816)"/><path class="y" d="M316.76,271.64h37.347V402.659h0v.146c0,5.832-8.355,10.562-18.674,10.562S316.76,408.637,316.76,402.8v-.146h0Z" transform="translate(10910.816 619.379)"/><path class="z" d="M316.76,273.294c0,5.032,8.355,9.106,18.674,9.106s18.674-4.074,18.674-9.106-8.355-9.094-18.674-9.094S316.76,268.274,316.76,273.294Z" transform="translate(10910.816 617.797)"/><path class="aa" d="M311.79,269.85H361.2v4.959h0V275c0,7.712-11.071,13.981-24.712,13.981s-24.7-6.269-24.7-13.981v-.194h0Z" transform="translate(10909.76 618.999)"/><ellipse class="ab" cx="24.712" cy="12.029" rx="24.712" ry="12.029" transform="translate(11221.539 876.917)"/><path class="ac" d="M357.48,416.5h63.539v3.953h0v.255c0,9.919-14.224,17.97-31.77,17.97s-31.769-8.051-31.769-17.97v-.255h0Z" transform="translate(10919.473 650.172)"/><path class="ad" d="M357.48,419.312c0,8.488,14.223,15.46,31.769,15.46s31.769-6.924,31.769-15.46S406.8,403.84,389.249,403.84,357.48,410.764,357.48,419.312Z" transform="translate(10919.473 647.481)"/><path class="ae" d="M363.3,410.09h49.425v4.947h0v.194c0,7.724-11.071,13.981-24.712,13.981S363.3,422.955,363.3,415.231v-.194h0Z" transform="translate(10920.71 648.81)"/><path class="af" d="M363.3,412.281c0,6.633,11.071,12.029,24.712,12.029s24.712-5.4,24.712-12.029-11.071-12.041-24.712-12.041S363.3,405.624,363.3,412.281Z" transform="translate(10920.71 646.716)"/><path class="ag" d="M368.28,300.63h37.347V431.588h0v.146c0,5.845-8.355,10.574-18.674,10.574s-18.674-4.729-18.674-10.574v-.146h0Z" transform="translate(10921.769 625.542)"/><path class="ah" d="M368.28,302.284c0,5.032,8.355,9.094,18.674,9.094s18.674-4.062,18.674-9.094-8.355-9.094-18.674-9.094S368.28,297.264,368.28,302.284Z" transform="translate(10921.769 623.96)"/><path class="ai" d="M363.3,298.84h49.425V303.8h0v.194c0,7.712-11.071,13.969-24.712,13.969S363.3,311.705,363.3,303.993V303.8h0Z" transform="translate(10920.71 625.161)"/><ellipse class="aj" cx="24.712" cy="12.029" rx="24.712" ry="12.029" transform="translate(11284.01 912.069)"/><path class="ak" d="M409,445.48h63.527v3.965h0a1.79,1.79,0,0,1,0,.255c0,9.919-14.211,17.97-31.757,17.97S409,459.619,409,449.748v-.255h0Z" transform="translate(10930.425 656.333)"/><path class="al" d="M409,448.3c0,8.488,14.223,15.46,31.769,15.46s31.757-6.924,31.757-15.46-14.211-15.472-31.757-15.472S409,439.754,409,448.3Z" transform="translate(10930.425 653.644)"/><path class="am" d="M414.82,439.07h49.412v4.959h0v.194c0,7.712-11.059,13.981-24.7,13.981s-24.712-6.269-24.712-13.981v-.194h0Z" transform="translate(10931.662 654.97)"/><path class="an" d="M414.82,441.259c0,6.645,11.059,12.041,24.712,12.041s24.7-5.4,24.7-12.041-11.059-12.029-24.7-12.029S414.82,434.614,414.82,441.259Z" transform="translate(10931.662 652.878)"/><path class="ao" d="M419.8,329.62h37.347V460.578h0a.6.6,0,0,1,0,.146c0,5.845-8.367,10.574-18.674,10.574S419.8,466.568,419.8,460.723v-.146h0Z" transform="translate(10932.72 631.704)"/><path class="ap" d="M419.8,331.274c0,5.02,8.355,9.094,18.674,9.094s18.674-4.074,18.674-9.094-8.367-9.094-18.674-9.094S419.8,326.254,419.8,331.274Z" transform="translate(10932.72 630.122)"/><path class="aq" d="M414.82,327.83h49.412v4.947h0v.194c0,7.724-11.059,13.981-24.7,13.981S414.82,340.7,414.82,332.971v-.194h0Z" transform="translate(10931.662 631.324)"/><path class="ar" d="M414.82,330.017c0,6.645,11.059,12.029,24.712,12.029s24.7-5.384,24.7-12.029S453.174,318,439.532,318,414.82,323.372,414.82,330.017Z" transform="translate(10931.662 629.234)"/><path class="as" d="M563.12,358.52h63.527v3.965h0v.243c0,9.931-14.223,17.97-31.757,17.97s-31.769-8.039-31.769-17.97v-.243h0Z" transform="translate(10963.186 637.847)"/><path class="at" d="M563.12,361.332c0,8.549,14.223,15.472,31.769,15.472s31.757-6.924,31.757-15.472-14.223-15.472-31.757-15.472S563.12,352.784,563.12,361.332Z" transform="translate(10963.186 635.156)"/><path class="au" d="M568.94,352.11h49.412v4.947h0a1.138,1.138,0,0,1,0,.194c0,7.724-11.059,13.981-24.7,13.981s-24.712-6.257-24.712-13.981v-.194h0Z" transform="translate(10964.424 636.485)"/><ellipse class="av" cx="24.712" cy="12.029" rx="24.712" ry="12.029" transform="translate(11533.364 976.663)"/><path class="aw" d="M573.91,242.66h37.359V373.618h0v.146c0,5.832-8.367,10.561-18.674,10.561S573.91,379.6,573.91,373.763v-.146h0Z" transform="translate(10965.479 613.219)"/><path class="ax" d="M573.91,244.314c0,5.02,8.367,9.094,18.686,9.094s18.674-4.074,18.674-9.094S602.9,235.22,592.6,235.22,573.91,239.282,573.91,244.314Z" transform="translate(10965.479 611.637)"/><path class="ay" d="M568.94,240.86h49.412v5.02h0a.986.986,0,0,1,0,.194c0,7.712-11.059,13.981-24.7,13.981s-24.712-6.269-24.712-13.981v-.194h0Z" transform="translate(10964.424 612.836)"/><ellipse class="az" cx="24.712" cy="12.029" rx="24.712" ry="12.029" transform="translate(11533.364 841.764)"/><path class="ba" d="M511.6,387.51h63.539v3.965h0a1.532,1.532,0,0,1,0,.243c0,9.931-14.211,17.97-31.757,17.97s-31.77-8.039-31.77-17.97v-.243h0Z" transform="translate(10952.234 644.01)"/><path class="bb" d="M511.6,390.322c0,8.488,14.224,15.472,31.769,15.472s31.769-6.936,31.769-15.472-14.211-15.472-31.757-15.472S511.6,381.774,511.6,390.322Z" transform="translate(10952.234 641.319)"/><path class="bc" d="M517.42,381.1h49.412v4.947h0v.194c0,7.724-11.059,13.981-24.7,13.981s-24.712-6.257-24.712-13.981v-.194h0Z" transform="translate(10953.472 642.647)"/><ellipse class="bd" cx="24.712" cy="12.029" rx="24.712" ry="12.029" transform="translate(11470.892 1011.816)"/><path class="be" d="M522.4,271.64h37.347V402.659h0v.146c0,5.832-8.367,10.562-18.674,10.562S522.4,408.637,522.4,402.8v-.146h0Z" transform="translate(10954.53 619.379)"/><path class="bf" d="M522.4,273.294c0,5.032,8.355,9.106,18.674,9.106s18.674-4.074,18.674-9.106-8.367-9.094-18.674-9.094S522.4,268.274,522.4,273.294Z" transform="translate(10954.53 617.797)"/><path class="bg" d="M517.42,269.85h49.412v4.959h0V275c0,7.712-11.059,13.981-24.7,13.981S517.42,282.715,517.42,275v-.194h0Z" transform="translate(10953.472 618.999)"/><ellipse class="bh" cx="24.712" cy="12.029" rx="24.712" ry="12.029" transform="translate(11470.892 876.917)"/><path class="bi" d="M460.08,416.5h63.539v3.953h0v.255c0,9.919-14.223,17.97-31.769,17.97s-31.769-8.051-31.769-17.97v-.255h0Z" transform="translate(10941.282 650.172)"/><path class="bj" d="M460.08,419.312c0,8.488,14.224,15.46,31.769,15.46s31.769-6.924,31.769-15.46S509.4,403.84,491.849,403.84,460.08,410.764,460.08,419.312Z" transform="translate(10941.282 647.481)"/><path class="bk" d="M465.9,410.09h49.424v4.947h0v.194c0,7.724-11.071,13.981-24.712,13.981S465.9,422.955,465.9,415.231v-.194h0Z" transform="translate(10942.52 648.81)"/><path class="bl" d="M465.9,412.281c0,6.633,11.071,12.029,24.712,12.029s24.712-5.4,24.712-12.029-11.071-12.041-24.712-12.041S465.9,405.624,465.9,412.281Z" transform="translate(10942.52 646.716)"/><path class="bm" d="M470.88,300.63h37.347V431.588h0v.146c0,5.845-8.355,10.574-18.674,10.574s-18.674-4.729-18.674-10.574v-.146h0Z" transform="translate(10943.578 625.542)"/><path class="bn" d="M470.88,302.284c0,5.032,8.355,9.094,18.674,9.094s18.674-4.062,18.674-9.094-8.355-9.094-18.674-9.094S470.88,297.264,470.88,302.284Z" transform="translate(10943.578 623.96)"/><path class="bo" d="M465.9,298.84h49.424V303.8h0v.194c0,7.712-11.071,13.969-24.712,13.969S465.9,311.705,465.9,303.993V303.8h0Z" transform="translate(10942.52 625.161)"/><ellipse class="bp" cx="24.712" cy="12.029" rx="24.712" ry="12.029" transform="translate(11408.42 912.069)"/><path class="d" d="M474.118,344.507v23.354L251.89,241.062V217.72Z" transform="translate(10897.026 607.917)"/><path class="e" d="M435.06,344.317v23.354L657.228,241.819V218.61Z" transform="translate(10935.965 608.106)"/><path class="bq" d="M474.118,344.507v8.949L251.89,226.657V217.72Z" transform="translate(10897.026 607.917)"/><path class="bq" d="M435.06,344.317v8.949L657.228,227.413v-8.8Z" transform="translate(10935.965 608.106)"/><path class="f" d="M474.288,115.334,693.764,240.848,474,365.173,254.339,239.781,474.288,115.334m0-1.394L251.89,239.781,474,366.568,696.165,240.86l-221.9-126.92Z" transform="translate(10897.026 585.856)"/><path class="d" d="M474.554,342.415v7.154L249.84,221.364V214.21Z" transform="translate(10896.591 607.171)"/><path class="d" d="M435.06,342.224v7.154L659.714,222.131V215.11Z" transform="translate(10935.965 607.362)"/><path class="c" d="M699.086,237.609,474.433,364.723,249.84,236.517,474.724,109.27Z" transform="translate(10896.591 584.864)"/><path class="br" d="M482.1,121.776,368.9,71.2,255.68,248.794Z" transform="translate(10897.832 576.771)"/><path class="bs" d="M370.118,71.721,256.9,249.314l-6.96-4.377L363.764,68.75Z" transform="translate(10896.612 576.25)"/><path class="bt" d="M360.62,81.27l96.351,40.124,192.969,110.6-95.3-39.615Z" transform="translate(10920.141 578.911)"/><path class="bu" d="M660.674,224.016,547.456,173.44,434.25,351.033Z" transform="translate(10935.792 598.504)"/><path class="bv" d="M626.481,222.5,545.8,186.45,465.1,313.031Z" transform="translate(10942.35 601.27)"/><path class="bw" d="M621.013,221.3,545.178,187.42l.618-.97,80.685,36.05L465.1,313.031l4.244-6.645Z" transform="translate(10942.35 601.27)"/><path class="bx" d="M548.676,173.961,435.47,351.554l-6.96-4.377L542.334,170.99Z" transform="translate(10934.572 597.984)"/><path class="by" d="M435.13,351.869,543.777,171.79l5.117,2.983Z" transform="translate(10935.979 598.154)"/><g class="bz" transform="translate(11152.017 841.764)"><path class="ca" d="M254.451,358.52h63.527v3.965h0v.243c0,9.931-14.224,17.97-31.769,17.97s-31.757-8.039-31.757-17.97a1.62,1.62,0,0,1,0-.242h0Z" transform="translate(-254.446 -203.917)"/><path class="ca" d="M254.45,361.332c0,8.549,14.223,15.472,31.757,15.472s31.769-6.924,31.769-15.472-14.224-15.472-31.769-15.472S254.45,352.784,254.45,361.332Z" transform="translate(-254.445 -206.608)"/><path class="ca" d="M260.274,352.11h49.388v4.947h0v.194c0,7.724-11.059,13.981-24.712,13.981s-24.7-6.257-24.7-13.981v-.194h0Z" transform="translate(-253.213 -205.279)"/><ellipse class="ca" cx="24.712" cy="12.029" rx="24.712" ry="12.029" transform="translate(7.05 134.899)"/><path class="ca" d="M265.241,242.66H302.6V373.618h0v.146c0,5.832-8.367,10.561-18.686,10.561s-18.674-4.729-18.674-10.561a.594.594,0,0,1,0-.146h0Z" transform="translate(-252.153 -228.546)"/><path class="ca" d="M265.24,244.314c0,5.02,8.367,9.094,18.674,9.094s18.686-4.074,18.686-9.094-8.367-9.094-18.686-9.094S265.24,239.282,265.24,244.314Z" transform="translate(-252.152 -230.127)"/><path class="ca" d="M260.274,240.86h49.388v5.02h0v.194c0,7.712-11.059,13.981-24.712,13.981s-24.7-6.269-24.7-13.981v-.194h0Z" transform="translate(-253.213 -228.928)"/><ellipse class="ca" cx="24.712" cy="12.029" rx="24.712" ry="12.029" transform="translate(7.05 0)"/><path class="ca" d="M306,387.51h63.527v3.965h0v.243c0,9.931-14.224,17.97-31.769,17.97S306,401.649,306,391.742V391.5h0Z" transform="translate(-243.487 -197.754)"/><path class="ca" d="M306,390.322c0,8.488,14.211,15.472,31.757,15.472s31.769-6.936,31.769-15.472S355.3,374.85,337.757,374.85,306,381.774,306,390.322Z" transform="translate(-243.487 -200.446)"/><path class="ca" d="M311.79,381.1H361.2v4.947h0v.194c0,7.724-11.071,13.981-24.712,13.981s-24.7-6.257-24.7-13.981v-.194h0Z" transform="translate(-242.256 -199.117)"/><ellipse class="ca" cx="24.712" cy="12.029" rx="24.712" ry="12.029" transform="translate(69.521 170.051)"/><path class="ca" d="M316.76,271.64h37.347V402.659h0v.146c0,5.832-8.355,10.562-18.674,10.562S316.76,408.637,316.76,402.8v-.146h0Z" transform="translate(-241.2 -222.385)"/><path class="ca" d="M316.76,273.294c0,5.032,8.355,9.106,18.674,9.106s18.674-4.074,18.674-9.106-8.355-9.094-18.674-9.094S316.76,268.274,316.76,273.294Z" transform="translate(-241.2 -223.967)"/><path class="ca" d="M311.79,269.85H361.2v4.959h0V275c0,7.712-11.071,13.981-24.712,13.981s-24.7-6.269-24.7-13.981v-.194h0Z" transform="translate(-242.256 -222.766)"/><ellipse class="ca" cx="24.712" cy="12.029" rx="24.712" ry="12.029" transform="translate(69.521 35.153)"/><path class="ca" d="M357.48,416.5h63.539v3.953h0v.255c0,9.919-14.224,17.97-31.77,17.97s-31.769-8.051-31.769-17.97v-.255h0Z" transform="translate(-232.544 -191.592)"/><path class="ca" d="M357.48,419.312c0,8.488,14.223,15.46,31.769,15.46s31.769-6.924,31.769-15.46S406.8,403.84,389.249,403.84,357.48,410.764,357.48,419.312Z" transform="translate(-232.544 -194.283)"/><path class="ca" d="M363.3,410.09h49.425v4.947h0v.194c0,7.724-11.071,13.981-24.712,13.981S363.3,422.955,363.3,415.231v-.194h0Z" transform="translate(-231.307 -192.954)"/><path class="ca" d="M363.3,412.281c0,6.633,11.071,12.029,24.712,12.029s24.712-5.4,24.712-12.029-11.071-12.041-24.712-12.041S363.3,405.624,363.3,412.281Z" transform="translate(-231.307 -195.048)"/><path class="ca" d="M368.28,300.63h37.347V431.588h0v.146c0,5.845-8.355,10.574-18.674,10.574s-18.674-4.729-18.674-10.574v-.146h0Z" transform="translate(-230.248 -216.223)"/><path class="ca" d="M368.28,302.284c0,5.032,8.355,9.094,18.674,9.094s18.674-4.062,18.674-9.094-8.355-9.094-18.674-9.094S368.28,297.264,368.28,302.284Z" transform="translate(-230.248 -217.804)"/><path class="ca" d="M363.3,298.84h49.425V303.8h0v.194c0,7.712-11.071,13.969-24.712,13.969S363.3,311.705,363.3,303.993V303.8h0Z" transform="translate(-231.307 -216.603)"/><ellipse class="ca" cx="24.712" cy="12.029" rx="24.712" ry="12.029" transform="translate(131.993 70.305)"/><path class="ca" d="M409,445.48h63.527v3.965h0a1.79,1.79,0,0,1,0,.255c0,9.919-14.211,17.97-31.757,17.97S409,459.619,409,449.748v-.255h0Z" transform="translate(-221.592 -185.431)"/><path class="ca" d="M409,448.3c0,8.488,14.223,15.46,31.769,15.46s31.757-6.924,31.757-15.46-14.211-15.472-31.757-15.472S409,439.754,409,448.3Z" transform="translate(-221.592 -188.121)"/><path class="ca" d="M414.82,439.07h49.412v4.959h0v.194c0,7.712-11.059,13.981-24.7,13.981s-24.712-6.269-24.712-13.981v-.194h0Z" transform="translate(-220.355 -186.794)"/><path class="ca" d="M414.82,441.259c0,6.645,11.059,12.041,24.712,12.041s24.7-5.4,24.7-12.041-11.059-12.029-24.7-12.029S414.82,434.614,414.82,441.259Z" transform="translate(-220.355 -188.886)"/><path class="ca" d="M419.8,329.62h37.347V460.578h0a.6.6,0,0,1,0,.146c0,5.845-8.367,10.574-18.674,10.574S419.8,466.568,419.8,460.723v-.146h0Z" transform="translate(-219.296 -210.06)"/><path class="ca" d="M419.8,331.274c0,5.02,8.355,9.094,18.674,9.094s18.674-4.074,18.674-9.094-8.367-9.094-18.674-9.094S419.8,326.254,419.8,331.274Z" transform="translate(-219.296 -211.642)"/><path class="ca" d="M414.82,327.83h49.412v4.947h0v.194c0,7.724-11.059,13.981-24.7,13.981S414.82,340.7,414.82,332.971v-.194h0Z" transform="translate(-220.355 -210.441)"/><path class="ca" d="M414.82,330.017c0,6.645,11.059,12.029,24.712,12.029s24.7-5.384,24.7-12.029S453.174,318,439.532,318,414.82,323.372,414.82,330.017Z" transform="translate(-220.355 -212.53)"/></g><g class="bz" transform="translate(11401.363 841.764)"><path class="ca" d="M563.12,358.52h63.527v3.965h0v.243c0,9.931-14.223,17.97-31.757,17.97s-31.769-8.039-31.769-17.97v-.243h0Z" transform="translate(-438.176 -203.917)"/><path class="ca" d="M563.12,361.332c0,8.549,14.223,15.472,31.769,15.472s31.757-6.924,31.757-15.472-14.223-15.472-31.757-15.472S563.12,352.784,563.12,361.332Z" transform="translate(-438.176 -206.608)"/><path class="ca" d="M568.94,352.11h49.412v4.947h0a1.138,1.138,0,0,1,0,.194c0,7.724-11.059,13.981-24.7,13.981s-24.712-6.257-24.712-13.981v-.194h0Z" transform="translate(-436.939 -205.279)"/><ellipse class="ca" cx="24.712" cy="12.029" rx="24.712" ry="12.029" transform="translate(132.001 134.899)"/><path class="ca" d="M573.91,242.66h37.359V373.618h0v.146c0,5.832-8.367,10.561-18.674,10.561S573.91,379.6,573.91,373.763v-.146h0Z" transform="translate(-435.883 -228.546)"/><path class="ca" d="M573.91,244.314c0,5.02,8.367,9.094,18.686,9.094s18.674-4.074,18.674-9.094S602.9,235.22,592.6,235.22,573.91,239.282,573.91,244.314Z" transform="translate(-435.883 -230.127)"/><path class="ca" d="M568.94,240.86h49.412v5.02h0a.986.986,0,0,1,0,.194c0,7.712-11.059,13.981-24.7,13.981s-24.712-6.269-24.712-13.981v-.194h0Z" transform="translate(-436.939 -228.928)"/><ellipse class="ca" cx="24.712" cy="12.029" rx="24.712" ry="12.029" transform="translate(132.001 0)"/><path class="ca" d="M511.6,387.51h63.539v3.965h0a1.532,1.532,0,0,1,0,.243c0,9.931-14.211,17.97-31.757,17.97s-31.77-8.039-31.77-17.97v-.243h0Z" transform="translate(-449.128 -197.754)"/><path class="ca" d="M511.6,390.322c0,8.488,14.224,15.472,31.769,15.472s31.769-6.936,31.769-15.472-14.211-15.472-31.757-15.472S511.6,381.774,511.6,390.322Z" transform="translate(-449.128 -200.446)"/><path class="ca" d="M517.42,381.1h49.412v4.947h0v.194c0,7.724-11.059,13.981-24.7,13.981s-24.712-6.257-24.712-13.981v-.194h0Z" transform="translate(-447.891 -199.117)"/><ellipse class="ca" cx="24.712" cy="12.029" rx="24.712" ry="12.029" transform="translate(69.529 170.051)"/><path class="ca" d="M522.4,271.64h37.347V402.659h0v.146c0,5.832-8.367,10.562-18.674,10.562S522.4,408.637,522.4,402.8v-.146h0Z" transform="translate(-446.832 -222.385)"/><path class="ca" d="M522.4,273.294c0,5.032,8.355,9.106,18.674,9.106s18.674-4.074,18.674-9.106-8.367-9.094-18.674-9.094S522.4,268.274,522.4,273.294Z" transform="translate(-446.832 -223.967)"/><path class="ca" d="M517.42,269.85h49.412v4.959h0V275c0,7.712-11.059,13.981-24.7,13.981S517.42,282.715,517.42,275v-.194h0Z" transform="translate(-447.891 -222.766)"/><ellipse class="ca" cx="24.712" cy="12.029" rx="24.712" ry="12.029" transform="translate(69.529 35.153)"/><path class="ca" d="M460.08,416.5h63.539v3.953h0v.255c0,9.919-14.223,17.97-31.769,17.97s-31.769-8.051-31.769-17.97v-.255h0Z" transform="translate(-460.08 -191.592)"/><path class="ca" d="M460.08,419.312c0,8.488,14.224,15.46,31.769,15.46s31.769-6.924,31.769-15.46S509.4,403.84,491.849,403.84,460.08,410.764,460.08,419.312Z" transform="translate(-460.08 -194.283)"/><path class="ca" d="M465.9,410.09h49.424v4.947h0v.194c0,7.724-11.071,13.981-24.712,13.981S465.9,422.955,465.9,415.231v-.194h0Z" transform="translate(-458.843 -192.954)"/><path class="ca" d="M465.9,412.281c0,6.633,11.071,12.029,24.712,12.029s24.712-5.4,24.712-12.029-11.071-12.041-24.712-12.041S465.9,405.624,465.9,412.281Z" transform="translate(-458.843 -195.048)"/><path class="ca" d="M470.88,300.63h37.347V431.588h0v.146c0,5.845-8.355,10.574-18.674,10.574s-18.674-4.729-18.674-10.574v-.146h0Z" transform="translate(-457.784 -216.223)"/><path class="ca" d="M470.88,302.284c0,5.032,8.355,9.094,18.674,9.094s18.674-4.062,18.674-9.094-8.355-9.094-18.674-9.094S470.88,297.264,470.88,302.284Z" transform="translate(-457.784 -217.804)"/><path class="ca" d="M465.9,298.84h49.424V303.8h0v.194c0,7.712-11.071,13.969-24.712,13.969S465.9,311.705,465.9,303.993V303.8h0Z" transform="translate(-458.843 -216.603)"/><ellipse class="ca" cx="24.712" cy="12.029" rx="24.712" ry="12.029" transform="translate(7.057 70.305)"/></g><path class="cb" d="M482.1,121.776,368.9,71.2,255.68,248.794Z" transform="translate(10897.832 576.771)"/><path class="cb" d="M370.118,71.721,256.9,249.314l-6.96-4.377L363.764,68.75Z" transform="translate(10896.612 576.25)"/><path class="cb" d="M360.62,81.27l96.351,40.124,192.969,110.6-95.3-39.615Z" transform="translate(10920.141 578.911)"/><path class="e" d="M660.674,224.016,547.456,173.44,434.25,351.033Z" transform="translate(10935.792 598.504)"/><path class="d" d="M626.481,222.5,545.8,186.45,465.1,313.031Z" transform="translate(10942.35 601.27)"/><path class="cc" d="M621.013,221.3,545.178,187.42l.618-.97,80.685,36.05L465.1,313.031l4.244-6.645Z" transform="translate(10942.35 601.27)"/><path class="cb" d="M548.676,173.961,435.47,351.554l-6.96-4.377L542.334,170.99Z" transform="translate(10934.572 597.984)"/><path class="cb" d="M435.13,351.869,543.777,171.79l5.117,2.983Z" transform="translate(10935.979 598.154)"/><path class="cd" d="M578.251,191.826,467.87,365.952,259.55,246.55,368.572,72.97Z" transform="translate(10898.655 577.147)"/><path class="ce" d="M348.25,245.172v90.494l6.124,3.323,84.3-63.393,13.169-83.243-6.124-3.322Z" transform="translate(10917.511 601.818)"/><path class="cf" d="M348.25,235.33v90.494l6.124,3.322,84.3-63.393-84.3-27.089Z" transform="translate(10917.511 611.661)"/><path class="f" d="M353.3,247.924v90.482l97.467-56.142V191.77Z" transform="translate(10918.584 602.401)"/><path class="cg" d="M405.56,256.212a16.65,16.65,0,0,0-4.05.5c-5.335,1.467-10.428,4.959-15.278,10.525l-.412.473c-.194.085-.255,0-.327-.133-3.25-3.08-6.524-6.123-9.761-9.216-.085-.1-.218-.158-.158-.388a77.775,77.775,0,0,1,8.076-8.585,69.114,69.114,0,0,1,11.18-8.427q11.265-6.766,20.82-6.354h.194c.1.17-.073.4-.17.606-1.467,3.116-2.971,6.221-4.45,9.337L405.9,255.7C405.814,255.9,405.766,256.1,405.56,256.212Z" transform="translate(10923.316 611.501)"/><path class="ch" d="M378.144,253.87l4.584,4.353,5.541,5.238a1.8,1.8,0,0,0,.121.146,49.6,49.6,0,0,0-3.844,5.445,37.489,37.489,0,0,0-3.456,7.53c-.158.473-.3.582-.655.643q-8.306,1.588-16.624,3.213c-.3.061-.436.061-.291-.4A81.945,81.945,0,0,1,377.9,254.185C377.938,254.028,378.047,254.028,378.144,253.87Z" transform="translate(10920.744 615.602)"/><path class="ci" d="M400.3,256.2c2.486-5.226,5-10.452,7.482-15.666.946-1.976,1.867-3.941,2.8-5.905a17.643,17.643,0,0,1,5.772,1.213,16.212,16.212,0,0,1,8.488,7.106c.061.085.085.23.242.206,0,.242-.243.364-.376.521L413.8,255.11c-1.661,1.746-3.322,3.48-4.972,5.238-.267.279-.5.643-.837.74a8.318,8.318,0,0,0-7.021-4.753Z" transform="translate(10928.575 611.512)"/><path d="M409.785,260.658,426.421,243.2l.424-.437,5.82-6.123.218-.206c.1-.085.146-.085.133,0l-5.954,6.851a2.5,2.5,0,0,1-.388.57c-1.1,1.273-2.207,2.571-3.371,3.783-2.765,3.056-5.444,6.208-8.173,9.325l-20.614,23.657c-.982,1.128-2.037,1.443-2.522.764s-.1-1.892.909-2.947Q401.333,269.534,409.785,260.658Z" transform="translate(10926.766 611.881)"/><path class="cj" d="M417.78,246.413c.97-1.213,2.037-2.352,3.056-3.553l.7-.8c.23.57.23.582-.5,1.273C419.951,244.412,418.9,245.455,417.78,246.413Z" transform="translate(10932.291 613.091)"/><path class="ck" d="M425.813,236.529h-.133l.606-.679A1.5,1.5,0,0,1,425.813,236.529Z" transform="translate(10933.97 611.771)"/><path class="cl" d="M388.1,399.211v73.567l4.972,2.7,68.547-51.534,10.695-67.674-4.971-2.7Z" transform="translate(10925.982 636.795)"/><path class="cm" d="M388.1,391.21v73.567l4.972,2.7,68.547-51.534-68.547-22.032Z" transform="translate(10925.982 644.796)"/><path class="cn" d="M392.2,401.441v73.567l79.242-45.641V355.8Z" transform="translate(10926.854 637.269)"/><path class="co" d="M406.2,405.991l7.76-4.474v-4.644c0-2.146-1.746-2.874-3.88-1.637h0a8.039,8.039,0,0,0-3.88,6.063Z" transform="translate(10929.829 645.524)"/><path class="f" d="M445.767,377.865l-36.377,21c2.134-1.213,3.88-.509,3.88,1.637v40.391c0,2.146,1.734,2.874,3.868,1.637l32.5-18.759V379.5C449.647,377.368,447.913,376.628,445.767,377.865Z" transform="translate(10930.508 641.832)"/><path class="co" d="M419.68,425.791v4.644a8.04,8.04,0,0,1-3.88,6.063l35.407-20.371a8.015,8.015,0,0,0,3.88-6.063V405.42Z" transform="translate(10931.87 647.817)"/><path class="cp" d="M417.52,395.421l20.614-11.871v5.869L417.52,401.29Z" transform="translate(10932.235 643.168)"/><path class="cq" d="M415.88,404.236l28.411-16.406v.776L415.88,405.012Z" transform="translate(10931.887 644.078)"/><path class="cq" d="M415.88,407.034l28.411-16.394v.764L415.88,407.81Z" transform="translate(10931.887 644.675)"/><path class="cq" d="M415.88,409.876l28.411-16.406v.764L415.88,410.6Z" transform="translate(10931.887 645.277)"/><path class="cq" d="M415.88,412.646l28.411-16.406v.776L415.88,413.41Z" transform="translate(10931.887 645.866)"/><path class="cq" d="M415.88,413.9l13.169-7.6v.776l-13.169,7.6Z" transform="translate(10931.887 648.004)"/><path class="cq" d="M415.88,416.713l13.169-7.6v.764l-13.169,7.591Z" transform="translate(10931.887 648.602)"/><path class="cq" d="M415.88,419.513l13.169-7.6v.764l-13.169,7.6Z" transform="translate(10931.887 649.197)"/><path class="cq" d="M415.88,422.333l13.169-7.6v.776l-13.169,7.6Z" transform="translate(10931.887 649.796)"/><path class="cm" d="M441.306,404.155c0,.582-.728,1.455-.9,2.073s.133,1.213-.194,1.9-1.213,1.079-1.637,1.673-.667,1.54-1.213,2.025-1.213.315-1.758.655-1.213,1.213-1.758,1.382-.764-.57-1.213-.631-1.3.461-1.637.206,0-1.213-.194-1.673-.885-.461-.885-1.043.715-1.455.885-2.073-.133-1.213.194-1.9,1.213-1.079,1.637-1.673.667-1.54,1.213-2.025,1.213-.315,1.758-.655,1.213-1.213,1.758-1.382.752.57,1.213.631,1.31-.461,1.637-.206,0,1.213.194,1.673S441.306,403.585,441.306,404.155Z" transform="translate(10934.872 646.875)"/><ellipse class="cn" cx="4.862" cy="2.753" rx="4.862" ry="2.753" transform="translate(11365.362 1056.56) rotate(-53.05)"/><path class="cr" d="M434.175,409.321a.521.521,0,0,1-.424.073l-.97-.412c-.23-.1-.23-.485,0-.849s.618-.582.849-.485l.546.23,2.28-3.638c.243-.376.618-.594.849-.485s.243.473,0,.837l-2.7,4.317a1.407,1.407,0,0,1-.424.412Z" transform="translate(10935.443 647.457)"/><path class="cs" d="M684.878,316.448v47.9l-5.1,2.825L635.15,333.618l-6.96-44.053,5.093-2.825Z" transform="translate(10977.019 622.589)"/><path class="ct" d="M683.658,311.24v47.9l-5.1,2.825L633.93,328.41l44.623-14.345Z" transform="translate(10978.239 627.797)"/><path class="ci" d="M679.773,318.778v47.9l-51.583-29.72V289.07Z" transform="translate(10977.019 623.084)"/><path class="cu" d="M638.88,317l6.984,13.823L665.981,316.1" transform="translate(10979.291 628.83)"/></g></svg>